<?xml version="1.0" standalone="yes"?>

<svg version="1.1" viewBox="0.0 0.0 960.0 720.0" fill="none" stroke="none" stroke-linecap="square" stroke-miterlimit="10" xmlns="http://www.w3.org/2000/svg" xmlns:xlink="http://www.w3.org/1999/xlink"><clipPath id="p.0"><path d="m0 0l960.0 0l0 720.0l-960.0 0l0 -720.0z" clip-rule="nonzero"></path></clipPath><g clip-path="url(#p.0)"><path fill="#000000" fill-opacity="0.0" d="m0 0l960.0 0l0 720.0l-960.0 0z" fill-rule="nonzero"></path><path fill="#000000" fill-opacity="0.0" d="m15.196851 25.343832l155.1811 0l0 155.1811l-155.1811 0z" fill-rule="nonzero"></path><path stroke="#000000" stroke-width="4.0" stroke-linejoin="round" stroke-linecap="butt" d="m15.196851 25.343832l155.1811 0l0 155.1811l-155.1811 0z" fill-rule="nonzero"></path><path fill="#000000" fill-opacity="0.0" d="m65.02362 25.091864l0 155.68504" fill-rule="nonzero"></path><path stroke="#000000" stroke-width="4.0" stroke-linejoin="round" stroke-linecap="butt" d="m65.02362 25.091864l0 155.68504" fill-rule="nonzero"></path><path fill="#000000" fill-opacity="0.0" d="m121.02362 25.091864l0 155.68504" fill-rule="nonzero"></path><path stroke="#000000" stroke-width="4.0" stroke-linejoin="round" stroke-linecap="butt" d="m121.02362 25.091864l0 155.68504" fill-rule="nonzero"></path><path fill="#000000" fill-opacity="0.0" d="m15.322835 77.698166l154.92914 0" fill-rule="nonzero"></path><path stroke="#000000" stroke-width="4.0" stroke-linejoin="round" stroke-linecap="butt" d="m15.322835 77.698166l154.92914 0" fill-rule="nonzero"></path><path fill="#000000" fill-opacity="0.0" d="m15.322835 129.39108l154.92914 0" fill-rule="nonzero"></path><path stroke="#000000" stroke-width="4.0" stroke-linejoin="round" stroke-linecap="butt" d="m15.322835 129.39108l154.92914 0" fill-rule="nonzero"></path><path fill="#000000" fill-opacity="0.0" d="m789.6221 25.343832l155.18109 0l0 155.1811l-155.18109 0z" fill-rule="nonzero"></path><path stroke="#000000" stroke-width="4.0" stroke-linejoin="round" stroke-linecap="butt" d="m789.6221 25.343832l155.18109 0l0 155.1811l-155.18109 0z" fill-rule="nonzero"></path><path fill="#000000" fill-opacity="0.0" d="m839.4488 25.091864l0 155.68504" fill-rule="nonzero"></path><path stroke="#000000" stroke-width="4.0" stroke-linejoin="round" stroke-linecap="butt" d="m839.4488 25.091864l0 155.68504" fill-rule="nonzero"></path><path fill="#000000" fill-opacity="0.0" d="m895.4488 25.091864l0 155.68504" fill-rule="nonzero"></path><path stroke="#000000" stroke-width="4.0" stroke-linejoin="round" stroke-linecap="butt" d="m895.4488 25.091864l0 155.68504" fill-rule="nonzero"></path><path fill="#000000" fill-opacity="0.0" d="m789.74805 77.698166l154.92914 0" fill-rule="nonzero"></path><path stroke="#000000" stroke-width="4.0" stroke-linejoin="round" stroke-linecap="butt" d="m789.74805 77.698166l154.92914 0" fill-rule="nonzero"></path><path fill="#000000" fill-opacity="0.0" d="m789.74805 129.39108l154.92914 0" fill-rule="nonzero"></path><path stroke="#000000" stroke-width="4.0" stroke-linejoin="round" stroke-linecap="butt" d="m789.74805 129.39108l154.92914 0" fill-rule="nonzero"></path><path fill="#000000" fill-opacity="0.0" d="m208.80315 266.7743l155.1811 0l0 155.18109l-155.1811 0z" fill-rule="nonzero"></path><path stroke="#000000" stroke-width="4.0" stroke-linejoin="round" stroke-linecap="butt" d="m208.80315 266.7743l155.1811 0l0 155.18109l-155.1811 0z" fill-rule="nonzero"></path><path fill="#000000" fill-opacity="0.0" d="m258.6299 266.5223l0 155.68503" fill-rule="nonzero"></path><path stroke="#000000" stroke-width="4.0" stroke-linejoin="round" stroke-linecap="butt" d="m258.6299 266.5223l0 155.68503" fill-rule="nonzero"></path><path fill="#000000" fill-opacity="0.0" d="m314.6299 266.5223l0 155.68503" fill-rule="nonzero"></path><path stroke="#000000" stroke-width="4.0" stroke-linejoin="round" stroke-linecap="butt" d="m314.6299 266.5223l0 155.68503" fill-rule="nonzero"></path><path fill="#000000" fill-opacity="0.0" d="m208.92914 319.1286l154.92914 0" fill-rule="nonzero"></path><path stroke="#000000" stroke-width="4.0" stroke-linejoin="round" stroke-linecap="butt" d="m208.92914 319.1286l154.92914 0" fill-rule="nonzero"></path><path fill="#000000" fill-opacity="0.0" d="m208.92914 370.82153l154.92914 0" fill-rule="nonzero"></path><path stroke="#000000" stroke-width="4.0" stroke-linejoin="round" stroke-linecap="butt" d="m208.92914 370.82153l154.92914 0" fill-rule="nonzero"></path><path fill="#000000" fill-opacity="0.0" d="m15.196851 266.7743l155.1811 0l0 155.18109l-155.1811 0z" fill-rule="nonzero"></path><path stroke="#000000" stroke-width="4.0" stroke-linejoin="round" stroke-linecap="butt" d="m15.196851 266.7743l155.1811 0l0 155.18109l-155.1811 0z" fill-rule="nonzero"></path><path fill="#000000" fill-opacity="0.0" d="m65.02362 266.5223l0 155.68503" fill-rule="nonzero"></path><path stroke="#000000" stroke-width="4.0" stroke-linejoin="round" stroke-linecap="butt" d="m65.02362 266.5223l0 155.68503" fill-rule="nonzero"></path><path fill="#000000" fill-opacity="0.0" d="m121.02362 266.5223l0 155.68503" fill-rule="nonzero"></path><path stroke="#000000" stroke-width="4.0" stroke-linejoin="round" stroke-linecap="butt" d="m121.02362 266.5223l0 155.68503" fill-rule="nonzero"></path><path fill="#000000" fill-opacity="0.0" d="m15.322835 319.1286l154.92914 0" fill-rule="nonzero"></path><path stroke="#000000" stroke-width="4.0" stroke-linejoin="round" stroke-linecap="butt" d="m15.322835 319.1286l154.92914 0" fill-rule="nonzero"></path><path fill="#000000" fill-opacity="0.0" d="m15.322835 370.82153l154.92914 0" fill-rule="nonzero"></path><path stroke="#000000" stroke-width="4.0" stroke-linejoin="round" stroke-linecap="butt" d="m15.322835 370.82153l154.92914 0" fill-rule="nonzero"></path><path fill="#000000" fill-opacity="0.0" d="m208.80315 25.343832l155.1811 0l0 155.1811l-155.1811 0z" fill-rule="nonzero"></path><path stroke="#000000" stroke-width="4.0" stroke-linejoin="round" stroke-linecap="butt" d="m208.80315 25.343832l155.1811 0l0 155.1811l-155.1811 0z" fill-rule="nonzero"></path><path fill="#000000" fill-opacity="0.0" d="m258.6299 25.091864l0 155.68504" fill-rule="nonzero"></path><path stroke="#000000" stroke-width="4.0" stroke-linejoin="round" stroke-linecap="butt" d="m258.6299 25.091864l0 155.68504" fill-rule="nonzero"></path><path fill="#000000" fill-opacity="0.0" d="m314.6299 25.091864l0 155.68504" fill-rule="nonzero"></path><path stroke="#000000" stroke-width="4.0" stroke-linejoin="round" stroke-linecap="butt" d="m314.6299 25.091864l0 155.68504" fill-rule="nonzero"></path><path fill="#000000" fill-opacity="0.0" d="m208.92914 77.698166l154.92914 0" fill-rule="nonzero"></path><path stroke="#000000" stroke-width="4.0" stroke-linejoin="round" stroke-linecap="butt" d="m208.92914 77.698166l154.92914 0" fill-rule="nonzero"></path><path fill="#000000" fill-opacity="0.0" d="m208.92914 129.39108l154.92914 0" fill-rule="nonzero"></path><path stroke="#000000" stroke-width="4.0" stroke-linejoin="round" stroke-linecap="butt" d="m208.92914 129.39108l154.92914 0" fill-rule="nonzero"></path><path fill="#000000" fill-opacity="0.0" d="m402.40945 25.343832l155.18112 0l0 155.1811l-155.18112 0z" fill-rule="nonzero"></path><path stroke="#000000" stroke-width="4.0" stroke-linejoin="round" stroke-linecap="butt" d="m402.40945 25.343832l155.18112 0l0 155.1811l-155.18112 0z" fill-rule="nonzero"></path><path fill="#000000" fill-opacity="0.0" d="m452.2362 25.091864l0 155.68504" fill-rule="nonzero"></path><path stroke="#000000" stroke-width="4.0" stroke-linejoin="round" stroke-linecap="butt" d="m452.2362 25.091864l0 155.68504" fill-rule="nonzero"></path><path fill="#000000" fill-opacity="0.0" d="m508.2362 25.091864l0 155.68504" fill-rule="nonzero"></path><path stroke="#000000" stroke-width="4.0" stroke-linejoin="round" stroke-linecap="butt" d="m508.2362 25.091864l0 155.68504" fill-rule="nonzero"></path><path fill="#000000" fill-opacity="0.0" d="m402.53543 77.698166l154.92911 0" fill-rule="nonzero"></path><path stroke="#000000" stroke-width="4.0" stroke-linejoin="round" stroke-linecap="butt" d="m402.53543 77.698166l154.92911 0" fill-rule="nonzero"></path><path fill="#000000" fill-opacity="0.0" d="m402.53543 129.39108l154.92911 0" fill-rule="nonzero"></path><path stroke="#000000" stroke-width="4.0" stroke-linejoin="round" stroke-linecap="butt" d="m402.53543 129.39108l154.92911 0" fill-rule="nonzero"></path><path fill="#000000" fill-opacity="0.0" d="m596.01575 25.343832l155.18109 0l0 155.1811l-155.18109 0z" fill-rule="nonzero"></path><path stroke="#000000" stroke-width="4.0" stroke-linejoin="round" stroke-linecap="butt" d="m596.01575 25.343832l155.18109 0l0 155.1811l-155.18109 0z" fill-rule="nonzero"></path><path fill="#000000" fill-opacity="0.0" d="m645.8425 25.091864l0 155.68504" fill-rule="nonzero"></path><path stroke="#000000" stroke-width="4.0" stroke-linejoin="round" stroke-linecap="butt" d="m645.8425 25.091864l0 155.68504" fill-rule="nonzero"></path><path fill="#000000" fill-opacity="0.0" d="m701.8425 25.091864l0 155.68504" fill-rule="nonzero"></path><path stroke="#000000" stroke-width="4.0" stroke-linejoin="round" stroke-linecap="butt" d="m701.8425 25.091864l0 155.68504" fill-rule="nonzero"></path><path fill="#000000" fill-opacity="0.0" d="m596.1417 77.698166l154.92914 0" fill-rule="nonzero"></path><path stroke="#000000" stroke-width="4.0" stroke-linejoin="round" stroke-linecap="butt" d="m596.1417 77.698166l154.92914 0" fill-rule="nonzero"></path><path fill="#000000" fill-opacity="0.0" d="m596.1417 129.39108l154.92914 0" fill-rule="nonzero"></path><path stroke="#000000" stroke-width="4.0" stroke-linejoin="round" stroke-linecap="butt" d="m596.1417 129.39108l154.92914 0" fill-rule="nonzero"></path><path fill="#000000" fill-opacity="0.0" d="m402.40945 266.7743l155.18112 0l0 155.18109l-155.18112 0z" fill-rule="nonzero"></path><path stroke="#000000" stroke-width="4.0" stroke-linejoin="round" stroke-linecap="butt" d="m402.40945 266.7743l155.18112 0l0 155.18109l-155.18112 0z" fill-rule="nonzero"></path><path fill="#000000" fill-opacity="0.0" d="m452.2362 266.5223l0 155.68503" fill-rule="nonzero"></path><path stroke="#000000" stroke-width="4.0" stroke-linejoin="round" stroke-linecap="butt" d="m452.2362 266.5223l0 155.68503" fill-rule="nonzero"></path><path fill="#000000" fill-opacity="0.0" d="m508.2362 266.5223l0 155.68503" fill-rule="nonzero"></path><path stroke="#000000" stroke-width="4.0" stroke-linejoin="round" stroke-linecap="butt" d="m508.2362 266.5223l0 155.68503" fill-rule="nonzero"></path><path fill="#000000" fill-opacity="0.0" d="m402.53543 319.1286l154.92911 0" fill-rule="nonzero"></path><path stroke="#000000" stroke-width="4.0" stroke-linejoin="round" stroke-linecap="butt" d="m402.53543 319.1286l154.92911 0" fill-rule="nonzero"></path><path fill="#000000" fill-opacity="0.0" d="m402.53543 370.82153l154.92911 0" fill-rule="nonzero"></path><path stroke="#000000" stroke-width="4.0" stroke-linejoin="round" stroke-linecap="butt" d="m402.53543 370.82153l154.92911 0" fill-rule="nonzero"></path><path fill="#000000" fill-opacity="0.0" d="m596.01575 266.7743l155.18109 0l0 155.18109l-155.18109 0z" fill-rule="nonzero"></path><path stroke="#000000" stroke-width="4.0" stroke-linejoin="round" stroke-linecap="butt" d="m596.01575 266.7743l155.18109 0l0 155.18109l-155.18109 0z" fill-rule="nonzero"></path><path fill="#000000" fill-opacity="0.0" d="m645.8425 266.5223l0 155.68503" fill-rule="nonzero"></path><path stroke="#000000" stroke-width="4.0" stroke-linejoin="round" stroke-linecap="butt" d="m645.8425 266.5223l0 155.68503" fill-rule="nonzero"></path><path fill="#000000" fill-opacity="0.0" d="m701.8425 266.5223l0 155.68503" fill-rule="nonzero"></path><path stroke="#000000" stroke-width="4.0" stroke-linejoin="round" stroke-linecap="butt" d="m701.8425 266.5223l0 155.68503" fill-rule="nonzero"></path><path fill="#000000" fill-opacity="0.0" d="m596.1417 319.1286l154.92914 0" fill-rule="nonzero"></path><path stroke="#000000" stroke-width="4.0" stroke-linejoin="round" stroke-linecap="butt" d="m596.1417 319.1286l154.92914 0" fill-rule="nonzero"></path><path fill="#000000" fill-opacity="0.0" d="m596.1417 370.82153l154.92914 0" fill-rule="nonzero"></path><path stroke="#000000" stroke-width="4.0" stroke-linejoin="round" stroke-linecap="butt" d="m596.1417 370.82153l154.92914 0" fill-rule="nonzero"></path><path fill="#000000" fill-opacity="0.0" d="m789.6221 266.7743l155.18109 0l0 155.18109l-155.18109 0z" fill-rule="nonzero"></path><path stroke="#000000" stroke-width="4.0" stroke-linejoin="round" stroke-linecap="butt" d="m789.6221 266.7743l155.18109 0l0 155.18109l-155.18109 0z" fill-rule="nonzero"></path><path fill="#000000" fill-opacity="0.0" d="m839.4488 266.5223l0 155.68503" fill-rule="nonzero"></path><path stroke="#000000" stroke-width="4.0" stroke-linejoin="round" stroke-linecap="butt" d="m839.4488 266.5223l0 155.68503" fill-rule="nonzero"></path><path fill="#000000" fill-opacity="0.0" d="m895.4488 266.5223l0 155.68503" fill-rule="nonzero"></path><path stroke="#000000" stroke-width="4.0" stroke-linejoin="round" stroke-linecap="butt" d="m895.4488 266.5223l0 155.68503" fill-rule="nonzero"></path><path fill="#000000" fill-opacity="0.0" d="m789.74805 319.1286l154.92914 0" fill-rule="nonzero"></path><path stroke="#000000" stroke-width="4.0" stroke-linejoin="round" stroke-linecap="butt" d="m789.74805 319.1286l154.92914 0" fill-rule="nonzero"></path><path fill="#000000" fill-opacity="0.0" d="m789.74805 370.82153l154.92914 0" fill-rule="nonzero"></path><path stroke="#000000" stroke-width="4.0" stroke-linejoin="round" stroke-linecap="butt" d="m789.74805 370.82153l154.92914 0" fill-rule="nonzero"></path><path fill="#000000" fill-opacity="0.0" d="m16.80315 494.08136l155.1811 0l0 155.18109l-155.1811 0z" fill-rule="nonzero"></path><path stroke="#000000" stroke-width="4.0" stroke-linejoin="round" stroke-linecap="butt" d="m16.80315 494.08136l155.1811 0l0 155.18109l-155.1811 0z" fill-rule="nonzero"></path><path fill="#000000" fill-opacity="0.0" d="m66.62992 493.8294l0 155.68506" fill-rule="nonzero"></path><path stroke="#000000" stroke-width="4.0" stroke-linejoin="round" stroke-linecap="butt" d="m66.62992 493.8294l0 155.68506" fill-rule="nonzero"></path><path fill="#000000" fill-opacity="0.0" d="m122.62992 493.8294l0 155.68506" fill-rule="nonzero"></path><path stroke="#000000" stroke-width="4.0" stroke-linejoin="round" stroke-linecap="butt" d="m122.62992 493.8294l0 155.68506" fill-rule="nonzero"></path><path fill="#000000" fill-opacity="0.0" d="m16.929134 546.43567l154.92912 0" fill-rule="nonzero"></path><path stroke="#000000" stroke-width="4.0" stroke-linejoin="round" stroke-linecap="butt" d="m16.929134 546.43567l154.92912 0" fill-rule="nonzero"></path><path fill="#000000" fill-opacity="0.0" d="m16.929134 598.1286l154.92912 0" fill-rule="nonzero"></path><path stroke="#000000" stroke-width="4.0" stroke-linejoin="round" stroke-linecap="butt" d="m16.929134 598.1286l154.92912 0" fill-rule="nonzero"></path><path fill="#000000" fill-opacity="0.0" d="m210.40945 494.08136l155.18109 0l0 155.18109l-155.18109 0z" fill-rule="nonzero"></path><path stroke="#000000" stroke-width="4.0" stroke-linejoin="round" stroke-linecap="butt" d="m210.40945 494.08136l155.18109 0l0 155.18109l-155.18109 0z" fill-rule="nonzero"></path><path fill="#000000" fill-opacity="0.0" d="m260.2362 493.8294l0 155.68506" fill-rule="nonzero"></path><path stroke="#000000" stroke-width="4.0" stroke-linejoin="round" stroke-linecap="butt" d="m260.2362 493.8294l0 155.68506" fill-rule="nonzero"></path><path fill="#000000" fill-opacity="0.0" d="m316.2362 493.8294l0 155.68506" fill-rule="nonzero"></path><path stroke="#000000" stroke-width="4.0" stroke-linejoin="round" stroke-linecap="butt" d="m316.2362 493.8294l0 155.68506" fill-rule="nonzero"></path><path fill="#000000" fill-opacity="0.0" d="m210.53543 546.43567l154.92914 0" fill-rule="nonzero"></path><path stroke="#000000" stroke-width="4.0" stroke-linejoin="round" stroke-linecap="butt" d="m210.53543 546.43567l154.92914 0" fill-rule="nonzero"></path><path fill="#000000" fill-opacity="0.0" d="m210.53543 598.1286l154.92914 0" fill-rule="nonzero"></path><path stroke="#000000" stroke-width="4.0" stroke-linejoin="round" stroke-linecap="butt" d="m210.53543 598.1286l154.92914 0" fill-rule="nonzero"></path><path fill="#000000" fill-opacity="0.0" d="m404.01575 494.08136l155.18109 0l0 155.18109l-155.18109 0z" fill-rule="nonzero"></path><path stroke="#000000" stroke-width="4.0" stroke-linejoin="round" stroke-linecap="butt" d="m404.01575 494.08136l155.18109 0l0 155.18109l-155.18109 0z" fill-rule="nonzero"></path><path fill="#000000" fill-opacity="0.0" d="m453.84253 493.8294l0 155.68506" fill-rule="nonzero"></path><path stroke="#000000" stroke-width="4.0" stroke-linejoin="round" stroke-linecap="butt" d="m453.84253 493.8294l0 155.68506" fill-rule="nonzero"></path><path fill="#000000" fill-opacity="0.0" d="m509.84253 493.8294l0 155.68506" fill-rule="nonzero"></path><path stroke="#000000" stroke-width="4.0" stroke-linejoin="round" stroke-linecap="butt" d="m509.84253 493.8294l0 155.68506" fill-rule="nonzero"></path><path fill="#000000" fill-opacity="0.0" d="m404.14172 546.43567l154.92914 0" fill-rule="nonzero"></path><path stroke="#000000" stroke-width="4.0" stroke-linejoin="round" stroke-linecap="butt" d="m404.14172 546.43567l154.92914 0" fill-rule="nonzero"></path><path fill="#000000" fill-opacity="0.0" d="m404.14172 598.1286l154.92914 0" fill-rule="nonzero"></path><path stroke="#000000" stroke-width="4.0" stroke-linejoin="round" stroke-linecap="butt" d="m404.14172 598.1286l154.92914 0" fill-rule="nonzero"></path><path fill="#000000" fill-opacity="0.0" d="m77.480316 184.19029l30.614174 0l0 29.574799l-30.614174 0z" fill-rule="nonzero"></path><path fill="#000000" d="m88.83969 223.9103l0 -22.90625l15.703125 0l0 3.875l-11.078125 0l0 5.421875l9.5625 0l0 3.875l-9.5625 0l0 9.734375l-4.625 0z" fill-rule="nonzero"></path><path fill="#000000" fill-opacity="0.0" d="m461.48032 184.19029l30.614166 0l0 29.574799l-30.614166 0z" fill-rule="nonzero"></path><path fill="#000000" d="m472.93344 223.9103l0 -22.71875l4.625 0l0 18.859375l11.5 0l0 3.859375l-16.125 0z" fill-rule="nonzero"></path><path fill="#000000" fill-opacity="0.0" d="m269.48032 184.19029l30.614166 0l0 29.574799l-30.614166 0z" fill-rule="nonzero"></path><path fill="#000000" d="m280.82407 223.9103l0 -22.90625l9.734375 0q3.671875 0 5.328125 0.625q1.671875 0.609375 2.671875 2.1875q1.0 1.578125 1.0 3.609375q0 2.578125 -1.515625 4.265625q-1.515625 1.671875 -4.53125 2.109375q1.5 0.875 2.46875 1.921875q0.984375 1.046875 2.640625 3.71875l2.796875 4.46875l-5.53125 0l-3.34375 -4.984375q-1.78125 -2.671875 -2.4375 -3.359375q-0.65625 -0.703125 -1.390625 -0.953125q-0.734375 -0.265625 -2.328125 -0.265625l-0.9375 0l0 9.5625l-4.625 0zm4.625 -13.21875l3.421875 0q3.328125 0 4.15625 -0.28125q0.828125 -0.28125 1.296875 -0.96875q0.46875 -0.6875 0.46875 -1.71875q0 -1.15625 -0.625 -1.859375q-0.609375 -0.71875 -1.734375 -0.90625q-0.5625 -0.078125 -3.375 -0.078125l-3.609375 0l0 5.8125z" fill-rule="nonzero"></path><path fill="#000000" fill-opacity="0.0" d="m855.1181 184.19029l30.614197 0l0 29.574799l-30.614197 0z" fill-rule="nonzero"></path><path fill="#000000" d="m866.4306 201.00404l8.453125 0q2.859375 0 4.359375 0.4375q2.015625 0.59375 3.453125 2.109375q1.4375 1.515625 2.1875 3.71875q0.75 2.1875 0.75 5.40625q0 2.828125 -0.703125 4.875q-0.859375 2.5 -2.453125 4.046875q-1.203125 1.171875 -3.25 1.828125q-1.53125 0.484375 -4.09375 0.484375l-8.703125 0l0 -22.90625zm4.625 3.875l0 15.171875l3.453125 0q1.9375 0 2.796875 -0.21875q1.125 -0.28125 1.859375 -0.953125q0.75 -0.671875 1.21875 -2.203125q0.46875 -1.546875 0.46875 -4.203125q0 -2.65625 -0.46875 -4.078125q-0.46875 -1.421875 -1.3125 -2.21875q-0.84375 -0.796875 -2.140625 -1.078125q-0.96875 -0.21875 -3.796875 -0.21875l-2.078125 0z" fill-rule="nonzero"></path><path fill="#000000" fill-opacity="0.0" d="m658.2992 184.19029l30.614197 0l0 29.574799l-30.614197 0z" fill-rule="nonzero"></path><path fill="#000000" d="m669.59607 201.00404l4.625 0l0 12.40625q0 2.953125 0.171875 3.828125q0.296875 1.40625 1.40625 2.265625q1.125 0.84375 3.0625 0.84375q1.96875 0 2.96875 -0.796875q1.0 -0.8125 1.203125 -1.984375q0.203125 -1.171875 0.203125 -3.890625l0 -12.671875l4.625 0l0 12.03125q0 4.125 -0.375 5.828125q-0.375 1.703125 -1.390625 2.875q-1.0 1.171875 -2.6875 1.875q-1.6875 0.6875 -4.40625 0.6875q-3.28125 0 -4.984375 -0.75q-1.6875 -0.765625 -2.671875 -1.96875q-0.984375 -1.21875 -1.296875 -2.546875q-0.453125 -1.96875 -0.453125 -5.8125l0 -12.21875z" fill-rule="nonzero"></path><path fill="#000000" fill-opacity="0.0" d="m69.480316 424.1916l60.818893 0l0 29.57483l-60.818893 0z" fill-rule="nonzero"></path><path fill="#000000" d="m80.83969 463.9116l0 -22.90625l15.703125 0l0 3.875l-11.078125 0l0 5.421875l9.5625 0l0 3.875l-9.5625 0l0 9.734375l-4.625 0zm19.375 -22.390625l4.390625 0l0 3.140625q0 1.90625 -0.328125 3.015625q-0.328125 1.09375 -1.25 1.96875q-0.90625 0.875 -2.3125 1.375l-0.859375 -1.8125q1.328125 -0.4375 1.890625 -1.203125q0.5625 -0.765625 0.59375 -2.09375l-2.125 0l0 -4.390625z" fill-rule="nonzero"></path><path fill="#000000" fill-opacity="0.0" d="m461.48032 424.1916l60.81888 0l0 29.57483l-60.81888 0z" fill-rule="nonzero"></path><path fill="#000000" d="m472.93344 463.9116l0 -22.71875l4.625 0l0 18.859375l11.5 0l0 3.859375l-16.125 0zm19.28125 -22.390625l4.390625 0l0 3.140625q0 1.90625 -0.328125 3.015625q-0.328125 1.09375 -1.25 1.96875q-0.90625 0.875 -2.3125 1.375l-0.859375 -1.8125q1.328125 -0.4375 1.890625 -1.203125q0.5625 -0.765625 0.59375 -2.09375l-2.125 0l0 -4.390625z" fill-rule="nonzero"></path><path fill="#000000" fill-opacity="0.0" d="m269.48032 424.1916l60.81891 0l0 29.57483l-60.81891 0z" fill-rule="nonzero"></path><path fill="#000000" d="m280.82407 463.9116l0 -22.90625l9.734375 0q3.671875 0 5.328125 0.625q1.671875 0.609375 2.671875 2.1875q1.0 1.578125 1.0 3.609375q0 2.578125 -1.515625 4.265625q-1.515625 1.671875 -4.53125 2.109375q1.5 0.875 2.46875 1.921875q0.984375 1.046875 2.640625 3.71875l2.796875 4.46875l-5.53125 0l-3.34375 -4.984375q-1.78125 -2.671875 -2.4375 -3.359375q-0.65625 -0.703125 -1.390625 -0.953125q-0.734375 -0.265625 -2.328125 -0.265625l-0.9375 0l0 9.5625l-4.625 0zm4.625 -13.21875l3.421875 0q3.328125 0 4.15625 -0.28125q0.828125 -0.28125 1.296875 -0.96875q0.46875 -0.6875 0.46875 -1.71875q0 -1.15625 -0.625 -1.859375q-0.609375 -0.71875 -1.734375 -0.90625q-0.5625 -0.078125 -3.375 -0.078125l-3.609375 0l0 5.8125zm18.328125 -9.171875l4.390625 0l0 3.140625q0 1.90625 -0.328125 3.015625q-0.328125 1.09375 -1.25 1.96875q-0.90625 0.875 -2.3125 1.375l-0.859375 -1.8125q1.328125 -0.4375 1.890625 -1.203125q0.5625 -0.765625 0.59375 -2.09375l-2.125 0l0 -4.390625z" fill-rule="nonzero"></path><path fill="#000000" fill-opacity="0.0" d="m855.1181 424.1916l60.81891 0l0 29.57483l-60.81891 0z" fill-rule="nonzero"></path><path fill="#000000" d="m866.4306 441.00534l8.453125 0q2.859375 0 4.359375 0.4375q2.015625 0.59375 3.453125 2.109375q1.4375 1.515625 2.1875 3.71875q0.75 2.1875 0.75 5.40625q0 2.828125 -0.703125 4.875q-0.859375 2.5 -2.453125 4.046875q-1.203125 1.171875 -3.25 1.828125q-1.53125 0.484375 -4.09375 0.484375l-8.703125 0l0 -22.90625zm4.625 3.875l0 15.171875l3.453125 0q1.9375 0 2.796875 -0.21875q1.125 -0.28125 1.859375 -0.953125q0.75 -0.671875 1.21875 -2.203125q0.46875 -1.546875 0.46875 -4.203125q0 -2.65625 -0.46875 -4.078125q-0.46875 -1.421875 -1.3125 -2.21875q-0.84375 -0.796875 -2.140625 -1.078125q-0.96875 -0.21875 -3.796875 -0.21875l-2.078125 0zm18.359375 -3.359375l4.390625 0l0 3.140625q0 1.90625 -0.328125 3.015625q-0.328125 1.09375 -1.25 1.96875q-0.90625 0.875 -2.3125 1.375l-0.859375 -1.8125q1.328125 -0.4375 1.890625 -1.203125q0.5625 -0.765625 0.59375 -2.09375l-2.125 0l0 -4.390625z" fill-rule="nonzero"></path><path fill="#000000" fill-opacity="0.0" d="m77.480316 656.1916l60.818893 0l0 29.57483l-60.818893 0z" fill-rule="nonzero"></path><path fill="#000000" d="m88.74594 695.9116l0 -22.90625l6.921875 0l4.15625 15.625l4.109375 -15.625l6.9375 0l0 22.90625l-4.296875 0l0 -18.03125l-4.546875 18.03125l-4.453125 0l-4.53125 -18.03125l0 18.03125l-4.296875 0z" fill-rule="nonzero"></path><path fill="#000000" d="m114.667816 707.9116l0 -15.03125l6.390625 0q2.421875 0 3.5 0.40625q1.09375 0.40625 1.75 1.4375q0.65625 1.03125 0.65625 2.375q0 1.6875 -1.0 2.796875q-0.984375 1.09375 -2.96875 1.375q0.984375 0.578125 1.625 1.265625q0.640625 0.6875 1.734375 2.4375l1.828125 2.9375l-3.625 0l-2.1875 -3.265625q-1.171875 -1.765625 -1.609375 -2.21875q-0.421875 -0.453125 -0.90625 -0.625q-0.484375 -0.171875 -1.53125 -0.171875l-0.609375 0l0 6.28125l-3.046875 0zm3.046875 -8.671875l2.234375 0q2.1875 0 2.734375 -0.1875q0.546875 -0.1875 0.84375 -0.640625q0.3125 -0.453125 0.3125 -1.125q0 -0.75 -0.40625 -1.21875q-0.40625 -0.46875 -1.140625 -0.59375q-0.375 -0.046875 -2.21875 -0.046875l-2.359375 0l0 3.8125z" fill-rule="nonzero"></path><path fill="#000000" fill-opacity="0.0" d="m658.2992 424.1916l60.81891 0l0 29.57483l-60.81891 0z" fill-rule="nonzero"></path><path fill="#000000" d="m669.59607 441.00534l4.625 0l0 12.40625q0 2.953125 0.171875 3.828125q0.296875 1.40625 1.40625 2.265625q1.125 0.84375 3.0625 0.84375q1.96875 0 2.96875 -0.796875q1.0 -0.8125 1.203125 -1.984375q0.203125 -1.171875 0.203125 -3.890625l0 -12.671875l4.625 0l0 12.03125q0 4.125 -0.375 5.828125q-0.375 1.703125 -1.390625 2.875q-1.0 1.171875 -2.6875 1.875q-1.6875 0.6875 -4.40625 0.6875q-3.28125 0 -4.984375 -0.75q-1.6875 -0.765625 -2.671875 -1.96875q-0.984375 -1.21875 -1.296875 -2.546875q-0.453125 -1.96875 -0.453125 -5.8125l0 -12.21875zm23.0 0.515625l4.390625 0l0 3.140625q0 1.90625 -0.328125 3.015625q-0.328125 1.09375 -1.25 1.96875q-0.90625 0.875 -2.3125 1.375l-0.859375 -1.8125q1.328125 -0.4375 1.890625 -1.203125q0.5625 -0.765625 0.59375 -2.09375l-2.125 0l0 -4.390625z" fill-rule="nonzero"></path><path fill="#000000" fill-opacity="0.0" d="m601.8268 494.08136l155.18109 0l0 155.18109l-155.18109 0z" fill-rule="nonzero"></path><path stroke="#000000" stroke-width="4.0" stroke-linejoin="round" stroke-linecap="butt" d="m601.8268 494.08136l155.18109 0l0 155.18109l-155.18109 0z" fill-rule="nonzero"></path><path fill="#000000" fill-opacity="0.0" d="m651.65356 493.8294l0 155.68506" fill-rule="nonzero"></path><path stroke="#000000" stroke-width="4.0" stroke-linejoin="round" stroke-linecap="butt" d="m651.65356 493.8294l0 155.68506" fill-rule="nonzero"></path><path fill="#000000" fill-opacity="0.0" d="m707.65356 493.8294l0 155.68506" fill-rule="nonzero"></path><path stroke="#000000" stroke-width="4.0" stroke-linejoin="round" stroke-linecap="butt" d="m707.65356 493.8294l0 155.68506" fill-rule="nonzero"></path><path fill="#000000" fill-opacity="0.0" d="m601.95276 546.43567l154.92914 0" fill-rule="nonzero"></path><path stroke="#000000" stroke-width="4.0" stroke-linejoin="round" stroke-linecap="butt" d="m601.95276 546.43567l154.92914 0" fill-rule="nonzero"></path><path fill="#000000" fill-opacity="0.0" d="m601.95276 598.1286l154.92914 0" fill-rule="nonzero"></path><path stroke="#000000" stroke-width="4.0" stroke-linejoin="round" stroke-linecap="butt" d="m601.95276 598.1286l154.92914 0" fill-rule="nonzero"></path><path fill="#000000" fill-opacity="0.0" d="m662.50397 656.1916l75.685 0l0 29.57483l-75.685 0z" fill-rule="nonzero"></path><path fill="#000000" d="m673.7696 695.9116l0 -22.90625l6.921875 0l4.15625 15.625l4.109375 -15.625l6.9375 0l0 22.90625l-4.296875 0l0 -18.03125l-4.546875 18.03125l-4.453125 0l-4.53125 -18.03125l0 18.03125l-4.296875 0zm26.578125 -22.390625l4.390625 0l0 3.140625q0 1.90625 -0.328125 3.015625q-0.328125 1.09375 -1.25 1.96875q-0.90625 0.875 -2.3125 1.375l-0.859375 -1.8125q1.328125 -0.4375 1.890625 -1.203125q0.5625 -0.765625 0.59375 -2.09375l-2.125 0l0 -4.390625z" fill-rule="nonzero"></path><path fill="#000000" d="m708.56647 692.8804l5.546875 0q1.875 0 2.859375 0.28125q1.328125 0.390625 2.265625 1.390625q0.953125 1.0 1.4375 2.4375q0.5 1.4375 0.5 3.546875q0 1.859375 -0.46875 3.203125q-0.5625 1.640625 -1.609375 2.65625q-0.78125 0.765625 -2.125 1.203125q-1.015625 0.3125 -2.6875 0.3125l-5.71875 0l0 -15.03125zm3.03125 2.546875l0 9.953125l2.265625 0q1.28125 0 1.84375 -0.140625q0.734375 -0.1875 1.21875 -0.625q0.484375 -0.453125 0.796875 -1.453125q0.3125 -1.015625 0.3125 -2.75q0 -1.75 -0.3125 -2.671875q-0.3125 -0.9375 -0.859375 -1.453125q-0.546875 -0.53125 -1.40625 -0.71875q-0.640625 -0.140625 -2.484375 -0.140625l-1.375 0z" fill-rule="nonzero"></path><path fill="#000000" fill-opacity="0.0" d="m262.37796 657.8583l75.68503 0l0 29.574768l-75.68503 0z" fill-rule="nonzero"></path><path fill="#000000" d="m273.6436 697.57825l0 -22.90625l6.921875 0l4.15625 15.625l4.109375 -15.625l6.9375 0l0 22.90625l-4.296875 0l0 -18.03125l-4.546875 18.03125l-4.453125 0l-4.53125 -18.03125l0 18.03125l-4.296875 0zm26.578125 -22.390625l4.390625 0l0 3.140625q0 1.90625 -0.328125 3.015625q-0.328125 1.09375 -1.25 1.96875q-0.90625 0.875 -2.3125 1.375l-0.859375 -1.8125q1.328125 -0.4375 1.890625 -1.203125q0.5625 -0.765625 0.59375 -2.09375l-2.125 0l0 -4.390625z" fill-rule="nonzero"></path><path fill="#000000" d="m308.4561 709.57825l0 -15.03125l6.390625 0q2.421875 0 3.5 0.40625q1.09375 0.40625 1.75 1.4375q0.65625 1.03125 0.65625 2.375q0 1.6875 -1.0 2.796875q-0.984375 1.09375 -2.96875 1.375q0.984375 0.578125 1.625 1.265625q0.640625 0.6875 1.734375 2.4375l1.828125 2.9375l-3.625 0l-2.1875 -3.265625q-1.171875 -1.765625 -1.609375 -2.21875q-0.421875 -0.453125 -0.90625 -0.625q-0.484375 -0.171875 -1.53125 -0.171875l-0.609375 0l0 6.28125l-3.046875 0zm3.046875 -8.671875l2.234375 0q2.1875 0 2.734375 -0.1875q0.546875 -0.1875 0.84375 -0.640625q0.3125 -0.453125 0.3125 -1.125q0 -0.75 -0.40625 -1.21875q-0.40625 -0.46875 -1.140625 -0.59375q-0.375 -0.046875 -2.21875 -0.046875l-2.359375 0l0 3.8125z" fill-rule="nonzero"></path><path fill="#000000" fill-opacity="0.0" d="m462.37796 656.1916l60.81888 0l0 29.57483l-60.81888 0z" fill-rule="nonzero"></path><path fill="#000000" d="m473.6436 695.9116l0 -22.90625l6.921875 0l4.15625 15.625l4.109375 -15.625l6.9375 0l0 22.90625l-4.296875 0l0 -18.03125l-4.546875 18.03125l-4.453125 0l-4.53125 -18.03125l0 18.03125l-4.296875 0z" fill-rule="nonzero"></path><path fill="#000000" d="m499.54984 692.8804l5.546875 0q1.875 0 2.859375 0.28125q1.328125 0.390625 2.265625 1.390625q0.953125 1.0 1.4375 2.4375q0.49996948 1.4375 0.49996948 3.546875q0 1.859375 -0.46871948 3.203125q-0.5625 1.640625 -1.609375 2.65625q-0.78125 0.765625 -2.125 1.203125q-1.015625 0.3125 -2.6875 0.3125l-5.71875 0l0 -15.03125zm3.03125 2.546875l0 9.953125l2.265625 0q1.28125 0 1.84375 -0.140625q0.734375 -0.1875 1.21875 -0.625q0.484375 -0.453125 0.796875 -1.453125q0.3125 -1.015625 0.3125 -2.75q0 -1.75 -0.3125 -2.671875q-0.3125 -0.9375 -0.859375 -1.453125q-0.546875 -0.53125 -1.40625 -0.71875q-0.640625 -0.140625 -2.484375 -0.140625l-1.375 0z" fill-rule="nonzero"></path><path fill="#cfe2f3" d="m39.060368 105.84777l0 -31.23819c0 -14.695339 11.912926 -26.608269 26.608265 -26.608269l19.005913 0l0 -7.6023636l15.20472 15.204727l-15.20472 15.204727l0 -7.6023674l-19.005913 0l0 0c-6.2980003 0 -11.403542 5.105541 -11.403542 11.403545l0 31.23819z" fill-rule="nonzero"></path><path stroke="#000000" stroke-width="4.0" stroke-linejoin="round" stroke-linecap="butt" d="m39.060368 105.84777l0 -31.23819c0 -14.695339 11.912926 -26.608269 26.608265 -26.608269l19.005913 0l0 -7.6023636l15.20472 15.204727l-15.20472 15.204727l0 -7.6023674l-19.005913 0l0 0c-6.2980003 0 -11.403542 5.105541 -11.403542 11.403545l0 31.23819z" fill-rule="nonzero"></path><path fill="#cfe2f3" d="m155.99738 347.20734l0 -31.23819c0 -14.6953125 -11.912933 -26.608246 -26.608261 -26.608246l-19.005913 0l0 -7.602356l-15.204727 15.204712l15.204727 15.204712l0 -7.602356l19.005913 0l0 0c6.297989 0 11.403534 5.10553 11.403534 11.403534l0 31.23819z" fill-rule="nonzero"></path><path stroke="#000000" stroke-width="4.0" stroke-linejoin="round" stroke-linecap="butt" d="m155.99738 347.20734l0 -31.23819c0 -14.6953125 -11.912933 -26.608246 -26.608261 -26.608246l-19.005913 0l0 -7.602356l-15.204727 15.204712l15.204727 15.204712l0 -7.602356l19.005913 0l0 0c6.297989 0 11.403534 5.10553 11.403534 11.403534l0 31.23819z" fill-rule="nonzero"></path><path fill="#cfe2f3" d="m318.97375 64.02362l19.40158 -19.401573l19.40158 19.401573l-9.700806 0l0 85.10237l-19.40158 0l0 -85.10237z" fill-rule="nonzero"></path><path stroke="#000000" stroke-width="4.0" stroke-linejoin="round" stroke-linecap="butt" d="m318.97375 64.02362l19.40158 -19.401573l19.40158 19.401573l-9.700806 0l0 85.10237l-19.40158 0l0 -85.10237z" fill-rule="nonzero"></path><path fill="#cfe2f3" d="m408.87402 306.43832l19.40158 -19.40158l19.40155 19.40158l-9.700775 0l0 85.102356l-19.40158 0l0 -85.102356z" fill-rule="nonzero"></path><path stroke="#000000" stroke-width="4.0" stroke-linejoin="round" stroke-linecap="butt" d="m408.87402 306.43832l19.40158 -19.40158l19.40155 19.40158l-9.700775 0l0 85.102356l-19.40158 0l0 -85.102356z" fill-rule="nonzero"></path><path fill="#cfe2f3" d="m318.97375 377.2152l19.40158 19.40158l19.40158 -19.40158l-9.700806 0l0 -85.102356l-19.40158 0l0 85.102356z" fill-rule="nonzero"></path><path stroke="#000000" stroke-width="4.0" stroke-linejoin="round" stroke-linecap="butt" d="m318.97375 377.2152l19.40158 19.40158l19.40158 -19.40158l-9.700806 0l0 -85.102356l-19.40158 0l0 85.102356z" fill-rule="nonzero"></path><path fill="#cfe2f3" d="m408.87402 129.72441l19.40158 19.40158l19.40155 -19.40158l-9.700775 0l0 -85.10237l-19.40158 0l0 85.10237z" fill-rule="nonzero"></path><path stroke="#000000" stroke-width="4.0" stroke-linejoin="round" stroke-linecap="butt" d="m408.87402 129.72441l19.40158 19.40158l19.40155 -19.40158l-9.700775 0l0 -85.10237l-19.40158 0l0 85.10237z" fill-rule="nonzero"></path><path fill="#cfe2f3" d="m73.385826 538.82153l19.401573 -19.401611l19.401573 19.401611l-9.700783 0l0 85.102356l-19.401573 0l0 -85.102356z" fill-rule="nonzero"></path><path stroke="#000000" stroke-width="4.0" stroke-linejoin="round" stroke-linecap="butt" d="m73.385826 538.82153l19.401573 -19.401611l19.401573 19.401611l-9.700783 0l0 85.102356l-19.401573 0l0 -85.102356z" fill-rule="nonzero"></path><path fill="#cfe2f3" d="m318.97375 604.52234l19.40158 19.40155l19.40158 -19.40155l-9.700806 0l0 -85.10242l-19.40158 0l0 85.10242z" fill-rule="nonzero"></path><path stroke="#000000" stroke-width="4.0" stroke-linejoin="round" stroke-linecap="butt" d="m318.97375 604.52234l19.40158 19.40155l19.40158 -19.40155l-9.700806 0l0 -85.10242l-19.40158 0l0 85.10242z" fill-rule="nonzero"></path><path fill="#cfe2f3" d="m640.7559 552.2703l-19.401611 19.401611l19.401611 19.40155l0 -9.700806l85.102356 0l0 -19.40155l-85.102356 0z" fill-rule="nonzero"></path><path stroke="#000000" stroke-width="4.0" stroke-linejoin="round" stroke-linecap="butt" d="m640.7559 552.2703l-19.401611 19.401611l19.401611 19.40155l0 -9.700806l85.102356 0l0 -19.40155l-85.102356 0z" fill-rule="nonzero"></path><path fill="#cfe2f3" d="m633.5302 33.301838l-19.401611 19.401573l19.401611 19.401577l0 -9.70079l85.102356 0l0 -19.401573l-85.102356 0z" fill-rule="nonzero"></path><path stroke="#000000" stroke-width="4.0" stroke-linejoin="round" stroke-linecap="butt" d="m633.5302 33.301838l-19.401611 19.401573l19.401611 19.401577l0 -9.70079l85.102356 0l0 -19.401573l-85.102356 0z" fill-rule="nonzero"></path><path fill="#cfe2f3" d="m834.3622 376.29398l-19.40155 19.40155l19.40155 19.40158l0 -9.700775l85.10242 0l0 -19.40158l-85.10242 0z" fill-rule="nonzero"></path><path stroke="#000000" stroke-width="4.0" stroke-linejoin="round" stroke-linecap="butt" d="m834.3622 376.29398l-19.40155 19.40155l19.40155 19.40158l0 -9.700775l85.10242 0l0 -19.40158l-85.10242 0z" fill-rule="nonzero"></path><path fill="#cfe2f3" d="m516.5591 552.2703l19.40155 19.401611l-19.40155 19.40155l0 -9.700806l-85.10239 0l0 -19.40155l85.10239 0z" fill-rule="nonzero"></path><path stroke="#000000" stroke-width="4.0" stroke-linejoin="round" stroke-linecap="butt" d="m516.5591 552.2703l19.40155 19.401611l-19.40155 19.40155l0 -9.700806l-85.10239 0l0 -19.40155l85.10239 0z" fill-rule="nonzero"></path><path fill="#cfe2f3" d="m909.0866 136.76115l19.40155 19.40158l-19.40155 19.401566l0 -9.70079l-85.102356 0l0 -19.401566l85.102356 0z" fill-rule="nonzero"></path><path stroke="#000000" stroke-width="2.0" stroke-linejoin="round" stroke-linecap="butt" d="m909.0866 136.76115l19.40155 19.40158l-19.40155 19.401566l0 -9.70079l-85.102356 0l0 -19.401566l85.102356 0z" fill-rule="nonzero"></path><path fill="#cfe2f3" d="m712.2677 275.5656l19.401611 19.40158l-19.401611 19.40158l0 -9.700806l-85.102356 0l0 -19.40155l85.102356 0z" fill-rule="nonzero"></path><path stroke="#000000" stroke-width="4.0" stroke-linejoin="round" stroke-linecap="butt" d="m712.2677 275.5656l19.401611 19.40158l-19.401611 19.40158l0 -9.700806l-85.102356 0l0 -19.40155l85.102356 0z" fill-rule="nonzero"></path></g></svg>

